# xmcd CD database file
#
# Track frame offsets:
#	150
#	18470
#	31967
#	63095
#	85437
#	111807
#	133052
#	149420
#	176555
#	200772
#
# Disc length: 2997 seconds
#
# Revision: 0
# Processed by: cddbd v1.4PL0 Copyright (c) Steve Scherf et al.
# Submitted via: CDex 1.50beta10
#
DISCID=8e0bb30a
DTITLE=Janet Seidel - The Way You Wear Your Hat
DYEAR=1998
DGENRE=Jazz
TTITLE0=Lazy River
TTITLE1=Pick Yourself Up
TTITLE2=My One And Only Love
TTITLE3=Poor Butterfly
TTITLE4=Corcovado (Quiet Nights)
TTITLE5=My Foolish Heart
TTITLE6=Tenderly
TTITLE7=Manha De Carnival
TTITLE8=Someone To Watch Over Me
TTITLE9=They Can't Take That Away From Me
EXTD=YEAR: 1998
EXTT0=
EXTT1=
EXTT2=
EXTT3=
EXTT4=
EXTT5=
EXTT6=
EXTT7=
EXTT8=
EXTT9=
PLAYORDER=
